<svg id="visual" viewBox="0 0 900 600" width="900" height="600" xmlns="http://www.w3.org/2000/svg" xmlns:xlink="http://www.w3.org/1999/xlink" version="1.1"><rect x="0" y="0" width="900" height="600" fill="#001220"></rect><path d="M0 397L21.5 396.2C43 395.3 86 393.7 128.8 395C171.7 396.3 214.3 400.7 257.2 401.8C300 403 343 401 385.8 396.5C428.7 392 471.3 385 514.2 381.7C557 378.3 600 378.7 642.8 375.7C685.7 372.7 728.3 366.3 771.2 368.5C814 370.7 857 381.3 878.5 386.7L900 392L900 601L878.5 601C857 601 814 601 771.2 601C728.3 601 685.7 601 642.8 601C600 601 557 601 514.2 601C471.3 601 428.7 601 385.8 601C343 601 300 601 257.2 601C214.3 601 171.7 601 128.8 601C86 601 43 601 21.5 601L0 601Z" fill="#fa7268"></path><path d="M0 479L21.5 470C43 461 86 443 128.8 443C171.7 443 214.3 461 257.2 462.3C300 463.7 343 448.3 385.8 437C428.7 425.7 471.3 418.3 514.2 414.3C557 410.3 600 409.7 642.8 411.2C685.7 412.7 728.3 416.3 771.2 419C814 421.7 857 423.3 878.5 424.2L900 425L900 601L878.5 601C857 601 814 601 771.2 601C728.3 601 685.7 601 642.8 601C600 601 557 601 514.2 601C471.3 601 428.7 601 385.8 601C343 601 300 601 257.2 601C214.3 601 171.7 601 128.8 601C86 601 43 601 21.5 601L0 601Z" fill="#ef5f67"></path><path d="M0 470L21.5 475.7C43 481.3 86 492.7 128.8 498.3C171.7 504 214.3 504 257.2 497.8C300 491.7 343 479.3 385.8 472.2C428.7 465 471.3 463 514.2 469.8C557 476.7 600 492.3 642.8 498.5C685.7 504.7 728.3 501.3 771.2 499.2C814 497 857 496 878.5 495.5L900 495L900 601L878.5 601C857 601 814 601 771.2 601C728.3 601 685.7 601 642.8 601C600 601 557 601 514.2 601C471.3 601 428.7 601 385.8 601C343 601 300 601 257.2 601C214.3 601 171.7 601 128.8 601C86 601 43 601 21.5 601L0 601Z" fill="#e34c67"></path><path d="M0 488L21.5 495.8C43 503.7 86 519.3 128.8 518.7C171.7 518 214.3 501 257.2 494.5C300 488 343 492 385.8 496.2C428.7 500.3 471.3 504.7 514.2 511.7C557 518.7 600 528.3 642.8 529C685.7 529.7 728.3 521.3 771.2 517.5C814 513.7 857 514.3 878.5 514.7L900 515L900 601L878.5 601C857 601 814 601 771.2 601C728.3 601 685.7 601 642.8 601C600 601 557 601 514.2 601C471.3 601 428.7 601 385.8 601C343 601 300 601 257.2 601C214.3 601 171.7 601 128.8 601C86 601 43 601 21.5 601L0 601Z" fill="#d53867"></path><path d="M0 525L21.5 530.8C43 536.7 86 548.3 128.8 551.2C171.7 554 214.3 548 257.2 547.3C300 546.7 343 551.3 385.8 555.7C428.7 560 471.3 564 514.2 565.7C557 567.3 600 566.7 642.8 563.3C685.7 560 728.3 554 771.2 548.7C814 543.3 857 538.7 878.5 536.3L900 534L900 601L878.5 601C857 601 814 601 771.2 601C728.3 601 685.7 601 642.8 601C600 601 557 601 514.2 601C471.3 601 428.7 601 385.8 601C343 601 300 601 257.2 601C214.3 601 171.7 601 128.8 601C86 601 43 601 21.5 601L0 601Z" fill="#c62368"></path></svg>